<?xml version="1.0" standalone="no"?>
<!DOCTYPE svg PUBLIC "-//W3C//DTD SVG 20010904//EN"
 "http://www.w3.org/TR/2001/REC-SVG-20010904/DTD/svg10.dtd">
<svg version="1.0" xmlns="http://www.w3.org/2000/svg"
 width="555.000000pt" height="555.000000pt" viewBox="0 0 555.000000 555.000000"
 preserveAspectRatio="xMidYMid meet">

<g transform="translate(0.000000,555.000000) scale(0.100000,-0.100000)"
fill="#000000" stroke="none">
<path d="M1410 3674 c0 -677 2 -823 16 -911 28 -193 92 -368 184 -503 58 -86
168 -198 234 -240 50 -32 57 -41 77 -100 109 -324 344 -602 627 -744 154 -77
384 -123 565 -112 385 23 637 162 934 513 l95 112 -148 168 c-81 92 -202 230
-268 306 l-121 138 -127 -134 c-145 -152 -214 -210 -288 -238 -63 -24 -179
-27 -229 -6 l-35 15 45 22 c220 112 391 327 476 600 l27 84 63 -69 c62 -68 63
-69 82 -50 28 30 501 646 501 654 0 3 -56 66 -125 138 -147 154 -242 229 -383
302 l-102 52 0 404 0 405 -415 0 -415 0 0 -401 c0 -399 0 -401 -21 -406 -79
-21 -248 -121 -359 -213 l-60 -51 0 536 0 535 -415 0 -415 0 0 -806z m720 50
l0 -645 46 68 c70 102 146 185 237 258 85 68 248 155 329 177 l48 12 2 386 3
385 302 3 303 2 2 -391 3 -391 81 -32 c150 -60 309 -176 437 -320 l58 -65 -68
-88 c-37 -49 -117 -151 -177 -228 -59 -77 -115 -149 -122 -160 -13 -19 -19
-15 -112 78 -53 53 -101 97 -105 97 -4 0 -7 -17 -7 -37 0 -21 -11 -85 -24
-143 -79 -350 -266 -577 -560 -681 -49 -17 -80 -34 -78 -41 1 -7 25 -34 52
-59 107 -98 244 -136 379 -106 112 26 185 72 325 208 l124 119 173 -197 c95
-109 181 -208 192 -220 24 -27 22 -31 -78 -143 -240 -271 -491 -391 -825 -393
-148 -2 -241 13 -369 59 -310 110 -556 376 -672 726 -31 92 -32 94 -86 127
-228 139 -381 421 -413 759 -6 61 -10 414 -10 815 l0 707 305 0 305 0 0 -646z"/>
<path d="M1660 3553 c0 -548 3 -695 15 -769 49 -301 180 -500 400 -608 261
-128 618 -110 849 44 197 133 321 363 344 643 9 114 10 113 -86 147 -52 19
-75 22 -136 17 -108 -8 -112 -11 -120 -104 -10 -106 -22 -155 -62 -240 -85
-180 -263 -272 -471 -244 -104 15 -185 55 -252 126 -58 62 -91 125 -123 241
-21 77 -22 95 -26 752 l-3 672 -165 0 -164 0 0 -677z"/>
<path d="M2930 3928 l0 -303 170 0 170 0 0 303 0 302 -170 0 -170 0 0 -302z"/>
<path d="M2860 3470 c-302 -65 -556 -293 -679 -608 l-21 -53 24 -48 c33 -65
70 -107 120 -136 47 -28 156 -49 161 -31 2 6 9 31 16 56 45 178 169 347 315
431 113 64 274 86 398 54 125 -33 198 -75 334 -193 35 -30 64 -53 66 -51 1 2
49 64 105 138 l103 134 -54 54 c-141 144 -310 232 -508 263 -102 16 -283 11
-380 -10z"/>
<path d="M2730 2848 c-58 -73 -133 -228 -118 -244 8 -8 81 56 106 92 37 55 83
204 63 204 -5 0 -28 -24 -51 -52z"/>
<path d="M2170 1975 c0 -25 76 -180 121 -246 55 -83 168 -200 246 -255 76 -55
185 -106 289 -136 110 -31 360 -32 475 0 91 24 183 65 261 116 61 38 248 211
248 228 0 6 -39 55 -87 110 -49 55 -96 110 -105 121 l-17 22 -63 -61 c-159
-156 -288 -214 -472 -214 -106 0 -195 24 -278 74 -69 41 -149 115 -190 174
l-29 42 -94 0 c-97 0 -230 14 -277 30 -22 7 -28 6 -28 -5z"/>
</g>
</svg>
